<svg width="60" height="56" viewBox="0 0 60 56" fill="none" xmlns="http://www.w3.org/2000/svg">
<g id="Frame" clip-path="url(#clip0_2615_130439)">
<path id="Vector" fill-rule="evenodd" clip-rule="evenodd" d="M32.7187 50.0117C32.6648 50.0117 32.611 50.0388 32.5571 50.0388L32.7187 50.0117Z" fill="#1C5C94"/>
<path id="Vector_2" d="M27.8942 1.58048L26.7728 1.73047L28.0671 11.7064L29.1884 11.5564L27.8942 1.58048Z" fill="#1C5C94"/>
<path id="Vector_3" d="M21.8683 3.06072L20.8233 3.5L24.614 12.7967L25.659 12.3575L21.8683 3.06072Z" fill="#1C5C94"/>
<path id="Vector_4" d="M41.2748 33.1397L40.619 34.0073L48.1603 39.8837L48.8161 39.016L41.2748 33.1397Z" fill="#1C5C94"/>
<path id="Vector_5" d="M42.8793 30.036L42.4669 31.0464L51.2489 34.7413L51.6612 33.7309L42.8793 30.036Z" fill="#1C5C94"/>
<path id="Vector_6" d="M43.65 26.6084L43.5338 27.6958L52.9849 28.7373L53.1012 27.6499L43.65 26.6084Z" fill="#1C5C94"/>
<path id="Vector_7" d="M24.2716 0.00503071L23.1791 0.302246L26.3014 12.1345L27.3939 11.8373L24.2716 0.00503071Z" fill="#1C5C94"/>
<path id="Vector_8" d="M43.3705 28.3516L43.0919 29.4082L54.2781 32.4488L54.5567 31.3922L43.3705 28.3516Z" fill="#1C5C94"/>
<path id="Vector_9" d="M42.1792 31.6412L41.6406 32.5884L47.5876 36.0747L48.1262 35.1275L42.1792 31.6412Z" fill="#1C5C94"/>
<path id="Vector_10" d="M50.4762 24.5414L43.6118 24.73L43.6409 25.8233L50.5053 25.6347L50.4762 24.5414Z" fill="#1C5C94"/>
<path id="Vector_11" fill-rule="evenodd" clip-rule="evenodd" d="M25.8531 38.0625L25.7993 38.1992C26.0147 38.2812 26.2302 38.3359 26.4456 38.418L26.4725 38.3086L25.8531 38.0625Z" fill="#1C5C94"/>
<path id="Vector_12" fill-rule="evenodd" clip-rule="evenodd" d="M27.497 38.6641C27.5239 38.6911 27.5778 38.6911 27.6047 38.7182L27.5509 38.6911L27.497 38.6641Z" fill="#1C5C94"/>
<path id="Vector_13" fill-rule="evenodd" clip-rule="evenodd" d="M24.7213 37.6523L24.2096 37.4609L24.1827 37.4883C24.3981 37.5977 24.5866 37.707 24.8021 37.7891L24.8559 37.6797L24.7213 37.6523Z" fill="#1C5C94"/>
<path id="Vector_14" fill-rule="evenodd" clip-rule="evenodd" d="M25.6906 38.0078L25.7714 38.0352L25.8522 38.0625L25.8791 38.0352L24.8827 37.625L24.8558 37.6797L24.8827 37.707L25.6906 38.0078Z" fill="#1C5C94"/>
<path id="Vector_15" fill-rule="evenodd" clip-rule="evenodd" d="M25.771 38.0352L25.6902 38.0078L24.8823 37.707L24.8285 37.6797L24.7746 37.7891C25.0978 37.9258 25.4209 38.0898 25.771 38.1992L25.8249 38.0625L25.771 38.0352Z" fill="#1C5C94"/>
<path id="Vector_16" fill-rule="evenodd" clip-rule="evenodd" d="M26.7146 38.3906L26.5799 38.3359L26.4722 38.2812L26.4453 38.3906C26.7953 38.5 27.1454 38.582 27.4955 38.6641V38.6367L26.7146 38.3906Z" fill="#1C5C94"/>
<path id="Vector_17" fill-rule="evenodd" clip-rule="evenodd" d="M23.9153 37.3516C23.996 37.4062 24.1038 37.4609 24.1846 37.4883L24.2115 37.4609L23.9153 37.3516Z" fill="#1C5C94"/>
<path id="Vector_18" d="M16.4444 6.06548L15.5471 6.76465L21.5804 14.7482L22.4778 14.0491L16.4444 6.06548Z" fill="#1C5C94"/>
<path id="Vector_19" fill-rule="evenodd" clip-rule="evenodd" d="M11.9293 10.418L11.256 11.3203L14.2991 13.6992C14.8108 13.5625 15.2955 13.4805 15.7802 13.4258L11.9293 10.418Z" fill="#1C5C94"/>
<path id="Vector_20" fill-rule="evenodd" clip-rule="evenodd" d="M11.3094 16.8711L8.72415 15.7773L8.29327 16.8164L11.3364 18.1016C11.2556 17.6914 11.2556 17.2812 11.3094 16.8711Z" fill="#1C5C94"/>
<path id="Vector_21" fill-rule="evenodd" clip-rule="evenodd" d="M12.5238 6.53516L11.7428 7.32812L17.7482 13.4258C18.4753 13.5078 19.1755 13.6992 19.8487 13.9453L12.5238 6.53516Z" fill="#1C5C94"/>
<path id="Vector_22" fill-rule="evenodd" clip-rule="evenodd" d="M12.8447 14.3555L5.35819 9.95312L4.79266 10.9375L12.0099 15.1758C12.2523 14.8477 12.5216 14.5742 12.8447 14.3555Z" fill="#1C5C94"/>
<path id="Vector_23" fill-rule="evenodd" clip-rule="evenodd" d="M12.0388 19.9336L5.54864 18.1562L5.25241 19.25L13.3314 21.4375C12.7928 20.9727 12.3619 20.4531 12.0388 19.9336Z" fill="#1C5C94"/>
<path id="Vector_24" d="M20.4356 6.81299L19.4561 7.38721L23.0378 13.686L24.0173 13.1118L20.4356 6.81299Z" fill="#1C5C94"/>
<path id="Vector_25" fill-rule="evenodd" clip-rule="evenodd" d="M20.5464 35.7109L20.4387 35.793L20.708 36.0391L21.1658 35.6016L20.5464 35.7109Z" fill="#1C5C94"/>
<path id="Vector_26" fill-rule="evenodd" clip-rule="evenodd" d="M11.4179 18.1562L11.3371 18.1289C11.4448 18.7305 11.6603 19.332 12.0642 19.9609L12.1989 19.9883C11.768 19.3594 11.5256 18.7578 11.4179 18.1562Z" fill="#1C5C94"/>
<path id="Vector_27" fill-rule="evenodd" clip-rule="evenodd" d="M16.0757 13.3981C16.1834 13.3981 16.2912 13.3981 16.3989 13.3711C16.3181 13.3711 16.1834 13.3711 16.0757 13.3981Z" fill="#1C5C94"/>
<path id="Vector_28" fill-rule="evenodd" clip-rule="evenodd" d="M21.3004 35.4375L21.1388 35.6016L21.4081 35.5469C21.3004 35.4102 21.462 35.5742 21.3004 35.4375Z" fill="#1C5C94"/>
<path id="Vector_29" fill-rule="evenodd" clip-rule="evenodd" d="M14.1921 13.7266C14.219 13.7266 14.2729 13.6992 14.2998 13.6992H14.2729C14.219 13.7266 14.1652 13.7266 14.1113 13.7539C13.6266 13.8906 13.2226 14.1094 12.8456 14.3828L12.8725 14.4102C13.2765 14.082 13.7074 13.8633 14.1921 13.7266Z" fill="#1C5C94"/>
<path id="Vector_30" fill-rule="evenodd" clip-rule="evenodd" d="M12.0641 15.2031L12.0103 15.1758C11.6332 15.668 11.3909 16.2422 11.3101 16.8711L11.3909 16.8984C11.4717 16.2695 11.714 15.6953 12.0641 15.2031Z" fill="#1C5C94"/>
<path id="Vector_31" fill-rule="evenodd" clip-rule="evenodd" d="M15.781 13.4258C15.2962 13.4531 14.7846 13.5625 14.2729 13.6992H14.2998C14.8115 13.5625 15.2962 13.4531 15.781 13.4258Z" fill="#1C5C94"/>
<path id="Vector_32" fill-rule="evenodd" clip-rule="evenodd" d="M11.3924 16.8984L11.3116 16.8711C11.2577 17.2813 11.2577 17.6914 11.3385 18.1016L11.4193 18.1289C11.3385 17.7188 11.3385 17.3086 11.3924 16.8984Z" fill="#1C5C94"/>
<path id="Vector_33" fill-rule="evenodd" clip-rule="evenodd" d="M12.899 14.3555L12.8721 14.3281C12.5489 14.5742 12.2527 14.8477 12.0373 15.1484L12.0911 15.1758C12.3066 14.875 12.5759 14.6016 12.899 14.3555Z" fill="#1C5C94"/>
<path id="Vector_34" fill-rule="evenodd" clip-rule="evenodd" d="M12.1719 19.9883L12.0373 19.9609C12.3604 20.4805 12.7913 21 13.3299 21.4922L13.5184 21.5469C12.9529 21.0273 12.4951 20.5078 12.1719 19.9883Z" fill="#1C5C94"/>
<path id="Vector_35" fill-rule="evenodd" clip-rule="evenodd" d="M17.7186 13.4524C17.4224 13.4253 17.1262 13.3983 16.8299 13.3983C17.1262 13.3713 17.4224 13.3983 17.7186 13.4524Z" fill="#1C5C94"/>
<path id="Vector_36" fill-rule="evenodd" clip-rule="evenodd" d="M19.8468 14C19.1466 13.7266 18.4465 13.5352 17.7194 13.4531C18.4465 13.5352 19.1736 13.7266 19.8468 14Z" fill="#1C5C94"/>
<path id="Vector_37" fill-rule="evenodd" clip-rule="evenodd" d="M38.6184 42.6564L20.7369 36.0119L26.9577 34.1252C27.0116 34.0978 27.0116 34.0158 27.0385 33.9611C27.631 32.8673 28.4658 31.172 28.8698 30.0236C29.3814 28.6291 29.6777 28.0548 28.8698 26.6056C28.6274 26.1955 27.7926 24.9923 27.3078 24.6916C27.4694 23.6798 28.4389 23.9259 29.0852 24.2814C29.92 24.883 30.7279 25.84 30.8087 26.8791C30.9164 28.1916 30.2971 31.6369 29.5969 32.8947C29.166 33.6877 29.1121 33.8244 28.3042 33.715C28.2234 33.715 27.9542 33.715 27.9542 33.797C27.9542 33.9064 28.0619 33.9884 28.1427 34.0431C29.0852 34.8088 32.1822 35.2736 31.0242 33.1955C30.9972 33.1408 30.8626 33.0588 30.9164 33.0314C32.0744 32.6486 33.2594 32.3478 34.4173 32.047L46.3204 41.5353C46.5628 41.7267 47.5053 42.3283 47.4245 42.8752C47.1283 45.6095 39.3725 42.9025 38.6184 42.6564ZM46.9667 41.0158L34.8482 31.172L30.8357 31.883C31.2396 30.3517 31.6974 28.8205 32.0206 27.2619C32.1552 26.6056 31.9936 26.0588 31.7243 25.4845C31.105 24.172 30.0547 23.4884 28.8159 22.8048C26.7423 21.6564 25.4227 25.2658 27.0385 26.3869C28.9236 27.6994 28.1157 29.1759 27.4963 30.9259C27.3617 31.3908 26.877 33.2228 26.473 33.3322C23.8877 34.0705 22.3527 34.4533 19.7674 35.1095L18.771 38.1173L41.4999 44.6525C43.0888 45.008 45.6202 45.2267 47.236 44.6525C50.2252 43.5041 47.7746 41.6447 46.9667 41.0158Z" fill="#1C5C94"/>
<path id="Vector_38" fill-rule="evenodd" clip-rule="evenodd" d="M24.1574 21.6016L24.1305 21.6562L24.1035 21.6836L24.0766 21.7109L24.0497 21.7383C24.0497 21.7656 24.0228 21.793 24.0228 21.8203C23.9689 21.9297 23.915 22.0664 23.8881 22.2031L23.6457 21.2187C23.1341 20.6172 21.1951 18.9766 19.4716 17.9648C18.2597 17.2539 17.1825 16.8711 16.7786 17.3633C16.2938 18.9492 14.1933 17.7188 14.328 16.4883C14.3549 16.1602 14.5434 15.832 14.9743 15.5586C15.082 15.5039 15.1897 15.4219 15.2974 15.3672C15.5667 15.2305 15.836 15.1484 16.1323 15.0938C16.8055 14.957 17.4788 15.0117 18.2059 15.2578C18.9599 15.5039 19.714 15.9961 20.5219 16.6523C21.5721 17.5273 22.8648 18.5937 23.9958 20.125C24.6691 19.5508 25.1807 19.4141 26.0425 20.0977C25.2346 20.1797 24.5075 20.8633 24.1574 21.5195V21.6016ZM24.3728 25.1289C24.2382 24.3906 24.2113 23.8164 24.2651 23.3242C24.9653 21.6836 25.8809 20.3984 27.9815 21.2734C29.1125 21.7383 29.2202 22.2578 29.328 22.3672L30.1628 22.9688L29.7588 21.9023C29.4357 21.2734 28.4931 20.3164 27.7929 20.125C27.7391 20.125 27.6852 20.0977 27.6044 20.0977L26.5811 19.1953C24.7229 17.0625 22.4339 14.9844 19.8217 14L19.8486 14.0273C19.1754 13.7539 18.4482 13.5898 17.7211 13.4805C17.4249 13.4531 17.1287 13.4258 16.8324 13.3984C16.8055 13.3984 16.7786 13.3984 16.7517 13.3984C16.6439 13.3984 16.5362 13.3984 16.4016 13.3984C16.2938 13.3984 16.1861 13.3984 16.0784 13.4258C16.0515 13.4258 16.0515 13.4258 16.0245 13.4258C15.9438 13.4258 15.863 13.4531 15.7822 13.4531C15.2974 13.5078 14.8127 13.5898 14.301 13.7266C14.2741 13.7266 14.2202 13.7539 14.1933 13.7539C13.7086 13.8906 13.2777 14.1094 12.8737 14.3828C12.5506 14.6289 12.2813 14.9023 12.0389 15.2031C11.6888 15.6953 11.4465 16.2695 11.3657 16.8984C11.3118 17.3086 11.3118 17.7188 11.3926 18.1563C11.5003 18.7578 11.7427 19.3594 12.1466 19.9883C12.4698 20.5078 12.9276 21.0273 13.4931 21.5469C14.4087 22.3398 15.6206 23.1055 17.1825 23.7891C17.4249 23.8984 17.6673 23.9805 17.9366 24.0898C22.0838 25.6758 22.6493 25.7852 26.7427 27.043C25.7732 25.6211 25.7732 25.5391 24.3728 25.1289Z" fill="#1C5C94"/>
<path id="Vector_39" fill-rule="evenodd" clip-rule="evenodd" d="M51.3813 46.9766C51.3813 46.9766 52.3239 46.4297 52.8355 46.0195L52.1623 47.8242L51.1659 48.0977L51.3813 46.9766Z" fill="#1C5C94"/>
<path id="Vector_40" fill-rule="evenodd" clip-rule="evenodd" d="M20.764 34.8359L20.5485 34.6719L20.2254 35L20.764 34.8359Z" fill="#1C5C94"/>
<path id="Vector_41" fill-rule="evenodd" clip-rule="evenodd" d="M38.0247 11.7852C38.0247 10.0898 37.2976 9.24219 35.8433 9.24219H34.1737V14.3828H35.8433C37.2976 14.3828 38.0247 13.5625 38.0247 11.7852ZM39.4789 11.7852C39.4789 14.3555 38.1593 15.7773 35.8433 15.7773H34.1737V20.3164H32.7464V7.875H35.8164C38.1593 7.875 39.4789 9.29687 39.4789 11.7852Z" fill="#1C5C94"/>
<path id="Vector_42" fill-rule="evenodd" clip-rule="evenodd" d="M40.9886 16.7344V11.457C40.9886 8.99609 42.362 7.62891 44.4087 7.62891C46.5092 7.62891 47.8019 8.94141 47.9365 11.3477H46.5092C46.4015 9.73437 45.6744 8.99609 44.3818 8.99609C43.1968 8.99609 42.4159 9.78906 42.4159 11.457V16.7344C42.4159 18.375 43.2507 19.168 44.4356 19.168C45.7283 19.168 46.4554 18.4023 46.59 16.8437H48.0173C47.8827 19.2227 46.59 20.5352 44.4356 20.5352C42.3889 20.5352 40.9886 19.168 40.9886 16.7344Z" fill="#1C5C94"/>
<path id="Vector_43" fill-rule="evenodd" clip-rule="evenodd" d="M55.3151 16.4062V11.7578C55.3151 10.0352 54.588 9.05078 53.1607 9.05078C51.7334 9.05078 50.9793 10.0352 50.9793 11.7578V16.4062C50.9793 18.1562 51.7065 19.1406 53.1607 19.1406C54.561 19.1133 55.3151 18.1562 55.3151 16.4062ZM49.4982 16.4062V11.7578C49.4982 9.21484 50.8716 7.62891 53.1337 7.62891C55.4228 7.62891 56.7693 9.21484 56.7693 11.7578V16.4062C56.7693 18.9766 55.4228 20.5625 53.1337 20.5625C50.8716 20.5352 49.4982 18.9492 49.4982 16.4062Z" fill="#1C5C94"/>
<path id="Vector_44" fill-rule="evenodd" clip-rule="evenodd" d="M52.7299 49.9844L56.931 32.5391C57.4427 32.4844 58.2775 32.5664 58.4122 33.1133C57.3619 36.4219 53.08 49.957 52.7299 49.9844ZM33.7443 46.6484L33.2057 42.5469L34.4983 42.9297L35.4409 46.5117C34.8754 46.5117 34.3098 46.5391 33.7443 46.6484ZM29.9202 48.1797V41.5625L32.0746 42.2187L32.694 46.8945C31.7515 47.1406 30.8359 47.5508 29.9202 48.1797ZM37.326 43.75L38.5648 46.7852C37.9185 46.6758 37.2452 46.5937 36.5989 46.5391L35.7371 43.2852L37.326 43.75ZM1.69763 32.3477C1.83228 31.8008 2.66711 31.7187 3.17878 31.7734L7.37985 49.2188C7.00283 49.1641 2.72097 35.6289 1.69763 32.3477ZM59.8125 33.1953C59.3547 32.4023 58.2775 31.6367 58.2775 31.4727C57.9813 29.4492 58.7892 27.5352 59.5702 25.7305C60.0818 24.0352 58.7623 23.5977 57.8466 23.2148C55.9346 30.4609 52.703 43.2578 52.1375 47.3047C51.949 47.3867 51.7605 47.4687 51.572 47.5508C51.7874 47.1953 52.0028 46.8398 52.2452 46.4297C48.1249 49.2188 43.9238 47.8789 39.7766 47.0039L39.8574 47.0312L38.6725 44.1602L41.5271 44.8164C43.6276 45.1719 45.5935 45.5273 47.2362 44.9531C49.7676 44.0508 48.5558 42.3828 47.5863 41.5625C49.7407 44.5156 42.7928 45.8555 38.6725 42.8203L38.0262 42.5742L37.9723 42.4102L36.572 41.8906L36.6258 42.0547L35.2524 41.5352L35.2255 41.3984L33.9867 40.9336L34.0136 41.0703L32.9633 40.6875L32.9364 40.5508L31.8053 40.1406L31.8323 40.2773L29.9202 39.5664L29.1931 39.293L28.0082 48.3711L26.931 48.2344L28.1429 38.9102L27.6043 38.7188C27.5773 38.7188 27.5235 38.6914 27.4965 38.6914L24.5343 49.9023L23.484 49.6289L26.4463 38.4453C26.2308 38.3906 26.0154 38.3086 25.8 38.2266L22.2183 46.9766L21.2219 46.5664L24.7766 37.8164C24.5612 37.707 24.3727 37.625 24.1572 37.5156L20.8179 43.3672L19.8754 42.8203L23.1339 37.0781L23.08 37.0508H23.0531L22.4337 36.832L16.9669 44.0781L16.1052 43.4219L21.3834 36.4492H21.3565L20.8987 36.2852L20.6563 36.0937L13.1967 43.668L12.4427 42.9023L20.4948 34.7266C20.3332 34.5625 20.1985 34.3711 20.0369 34.207L12.6581 39.9492L12.0118 39.0742L19.3906 33.3047C19.256 33.1133 19.1213 32.9219 19.0136 32.7305L13.3044 36.0937L12.7658 35.1367L18.5558 31.7461C18.4481 31.5273 18.3404 31.3359 18.2596 31.1172L9.64197 34.7539L9.23802 33.7422L17.8556 30.1055C17.7748 29.8867 17.721 29.668 17.6402 29.4492L6.59888 32.457L6.32958 31.3906L17.3709 28.3828C17.317 28.1641 17.2901 27.9453 17.2362 27.6992L7.94538 28.9297L7.81073 27.8359L17.1285 26.5781C17.1016 26.3594 17.1016 26.1133 17.1016 25.8945H10.3422V24.8008H17.1285C17.1554 24.4453 17.1824 24.0625 17.2362 23.707C15.6474 23.0234 14.4355 22.2578 13.5468 21.4648L13.3583 21.4102C13.5737 21.6016 13.8161 21.793 14.0585 21.9844H14.0316C13.87 22.0117 13.7084 22.0117 13.5199 22.0117C11.0693 21.875 2.18237 20.4531 3.17878 23.4336C1.07824 25.0469 1.6707 27.5898 1.80535 30.2695L0.647358 31.1719C0.0279683 31.6641 -0.0258917 32.3203 0.0279682 33.0859C1.61684 35.793 7.16441 54.7148 8.45705 55.7539C10.0998 57.0664 23.5109 51.8438 26.931 52.3906C29.3816 54.7148 31.5899 54.7422 34.633 52.4727C37.326 52.8008 51.2219 56.7383 52.703 55.4531C55.6653 49.2734 55.3691 43.8594 59.7856 34.6992C60.028 34.1797 60.1357 33.7148 59.8125 33.1953Z" fill="#1C5C94"/>
</g>
<defs>
<clipPath id="clip0_2615_130439">
<rect width="60" height="56" fill="white"/>
</clipPath>
</defs>
</svg>
