<svg width="13" height="17" viewBox="0 0 13 17" fill="none" xmlns="http://www.w3.org/2000/svg">
<g id="calendar_5o2t61zppwgn 1">
<g id="Group">
<path id="Vector" d="M3.375 3.8125C3.2025 3.8125 3.0625 3.67281 3.0625 3.5V1.625C3.0625 1.45219 3.2025 1.3125 3.375 1.3125C3.5475 1.3125 3.6875 1.45219 3.6875 1.625V3.5C3.6875 3.67281 3.5475 3.8125 3.375 3.8125Z" fill="#35383F"/>
</g>
<g id="Group_2">
<path id="Vector_2" d="M9.625 3.8125C9.4525 3.8125 9.3125 3.67281 9.3125 3.5V1.625C9.3125 1.45219 9.4525 1.3125 9.625 1.3125C9.7975 1.3125 9.9375 1.45219 9.9375 1.625V3.5C9.9375 3.67281 9.7975 3.8125 9.625 3.8125Z" fill="#35383F"/>
</g>
<g id="Group_3">
<path id="Vector_3" d="M10.875 15.6875C10.7025 15.6875 10.5625 15.5478 10.5625 15.375C10.5625 15.2022 10.7025 15.0625 10.875 15.0625C11.3919 15.0625 11.8125 14.6419 11.8125 14.125C11.8125 13.9522 11.9525 13.8125 12.125 13.8125C12.2975 13.8125 12.4375 13.9522 12.4375 14.125C12.4375 14.9866 11.7366 15.6875 10.875 15.6875Z" fill="#35383F"/>
</g>
<g id="Group_4">
<path id="Vector_4" d="M12.125 14.4375C11.9525 14.4375 11.8125 14.2978 11.8125 14.125V3.5C11.8125 3.32719 11.9525 3.1875 12.125 3.1875C12.2975 3.1875 12.4375 3.32719 12.4375 3.5V14.125C12.4375 14.2978 12.2975 14.4375 12.125 14.4375Z" fill="#35383F"/>
</g>
<g id="Group_5">
<path id="Vector_5" d="M10.875 15.6875H2.125C1.9525 15.6875 1.8125 15.5478 1.8125 15.375C1.8125 15.2022 1.9525 15.0625 2.125 15.0625H10.875C11.0475 15.0625 11.1875 15.2022 11.1875 15.375C11.1875 15.5478 11.0475 15.6875 10.875 15.6875Z" fill="#35383F"/>
</g>
<g id="Group_6">
<path id="Vector_6" d="M2.125 15.6875C1.26344 15.6875 0.5625 14.9866 0.5625 14.125C0.5625 13.9522 0.7025 13.8125 0.875 13.8125C1.0475 13.8125 1.1875 13.9522 1.1875 14.125C1.1875 14.6419 1.60812 15.0625 2.125 15.0625C2.2975 15.0625 2.4375 15.2022 2.4375 15.375C2.4375 15.5478 2.2975 15.6875 2.125 15.6875Z" fill="#35383F"/>
</g>
<g id="Group_7">
<path id="Vector_7" d="M0.875 14.4375C0.7025 14.4375 0.5625 14.2978 0.5625 14.125V3.5C0.5625 3.32719 0.7025 3.1875 0.875 3.1875C1.0475 3.1875 1.1875 3.32719 1.1875 3.5V14.125C1.1875 14.2978 1.0475 14.4375 0.875 14.4375Z" fill="#35383F"/>
</g>
<g id="Group_8">
<path id="Vector_8" d="M0.875 3.8125C0.7025 3.8125 0.5625 3.67281 0.5625 3.5C0.5625 2.63844 1.26344 1.9375 2.125 1.9375C2.2975 1.9375 2.4375 2.07719 2.4375 2.25C2.4375 2.42281 2.2975 2.5625 2.125 2.5625C1.60812 2.5625 1.1875 2.98312 1.1875 3.5C1.1875 3.67281 1.0475 3.8125 0.875 3.8125Z" fill="#35383F"/>
</g>
<g id="Group_9">
<path id="Vector_9" d="M10.875 2.5625H2.125C1.9525 2.5625 1.8125 2.42281 1.8125 2.25C1.8125 2.07719 1.9525 1.9375 2.125 1.9375H10.875C11.0475 1.9375 11.1875 2.07719 11.1875 2.25C11.1875 2.42281 11.0475 2.5625 10.875 2.5625Z" fill="#35383F"/>
</g>
<g id="Group_10">
<path id="Vector_10" d="M12.125 3.8125C11.9525 3.8125 11.8125 3.67281 11.8125 3.5C11.8125 2.98312 11.3919 2.5625 10.875 2.5625C10.7025 2.5625 10.5625 2.42281 10.5625 2.25C10.5625 2.07719 10.7025 1.9375 10.875 1.9375C11.7366 1.9375 12.4375 2.63844 12.4375 3.5C12.4375 3.67281 12.2975 3.8125 12.125 3.8125Z" fill="#35383F"/>
</g>
<g id="Group_11">
<path id="Vector_11" d="M10.25 13.8125H7.125C6.9525 13.8125 6.8125 13.6728 6.8125 13.5V11.625C6.8125 11.4522 6.9525 11.3125 7.125 11.3125H10.25C10.4225 11.3125 10.5625 11.4522 10.5625 11.625V13.5C10.5625 13.6728 10.4225 13.8125 10.25 13.8125ZM7.4375 13.1875H9.9375V11.9375H7.4375V13.1875Z" fill="#35383F"/>
</g>
<g id="Group_12">
<path id="Vector_12" d="M10.25 10.0625H9.3125C9.14 10.0625 9 9.92281 9 9.75C9 9.57719 9.14 9.4375 9.3125 9.4375H10.25C10.4225 9.4375 10.5625 9.57719 10.5625 9.75C10.5625 9.92281 10.4225 10.0625 10.25 10.0625Z" fill="#35383F"/>
</g>
<g id="Group_13">
<path id="Vector_13" d="M8.0625 10.0625H7.125C6.9525 10.0625 6.8125 9.92281 6.8125 9.75C6.8125 9.57719 6.9525 9.4375 7.125 9.4375H8.0625C8.235 9.4375 8.375 9.57719 8.375 9.75C8.375 9.92281 8.235 10.0625 8.0625 10.0625Z" fill="#35383F"/>
</g>
<g id="Group_14">
<path id="Vector_14" d="M10.25 8.1875H9.3125C9.14 8.1875 9 8.04781 9 7.875C9 7.70219 9.14 7.5625 9.3125 7.5625H10.25C10.4225 7.5625 10.5625 7.70219 10.5625 7.875C10.5625 8.04781 10.4225 8.1875 10.25 8.1875Z" fill="#35383F"/>
</g>
<g id="Group_15">
<path id="Vector_15" d="M8.0625 8.1875H7.125C6.9525 8.1875 6.8125 8.04781 6.8125 7.875C6.8125 7.70219 6.9525 7.5625 7.125 7.5625H8.0625C8.235 7.5625 8.375 7.70219 8.375 7.875C8.375 8.04781 8.235 8.1875 8.0625 8.1875Z" fill="#35383F"/>
</g>
<g id="Group_16">
<path id="Vector_16" d="M5.875 8.1875H4.9375C4.765 8.1875 4.625 8.04781 4.625 7.875C4.625 7.70219 4.765 7.5625 4.9375 7.5625H5.875C6.0475 7.5625 6.1875 7.70219 6.1875 7.875C6.1875 8.04781 6.0475 8.1875 5.875 8.1875Z" fill="#35383F"/>
</g>
<g id="Group_17">
<path id="Vector_17" d="M5.875 13.8125H4.9375C4.765 13.8125 4.625 13.6728 4.625 13.5C4.625 13.3272 4.765 13.1875 4.9375 13.1875H5.875C6.0475 13.1875 6.1875 13.3272 6.1875 13.5C6.1875 13.6728 6.0475 13.8125 5.875 13.8125Z" fill="#35383F"/>
</g>
<g id="Group_18">
<path id="Vector_18" d="M5.875 10.0625H4.9375C4.765 10.0625 4.625 9.92281 4.625 9.75C4.625 9.57719 4.765 9.4375 4.9375 9.4375H5.875C6.0475 9.4375 6.1875 9.57719 6.1875 9.75C6.1875 9.92281 6.0475 10.0625 5.875 10.0625Z" fill="#35383F"/>
</g>
<g id="Group_19">
<path id="Vector_19" d="M5.875 11.9375H4.9375C4.765 11.9375 4.625 11.7978 4.625 11.625C4.625 11.4522 4.765 11.3125 4.9375 11.3125H5.875C6.0475 11.3125 6.1875 11.4522 6.1875 11.625C6.1875 11.7978 6.0475 11.9375 5.875 11.9375Z" fill="#35383F"/>
</g>
<g id="Group_20">
<path id="Vector_20" d="M3.6875 11.9375H2.75C2.5775 11.9375 2.4375 11.7978 2.4375 11.625C2.4375 11.4522 2.5775 11.3125 2.75 11.3125H3.6875C3.86 11.3125 4 11.4522 4 11.625C4 11.7978 3.86 11.9375 3.6875 11.9375Z" fill="#35383F"/>
</g>
<g id="Group_21">
<path id="Vector_21" d="M3.6875 10.0625H2.75C2.5775 10.0625 2.4375 9.92281 2.4375 9.75C2.4375 9.57719 2.5775 9.4375 2.75 9.4375H3.6875C3.86 9.4375 4 9.57719 4 9.75C4 9.92281 3.86 10.0625 3.6875 10.0625Z" fill="#35383F"/>
</g>
<g id="Group_22">
<path id="Vector_22" d="M3.6875 13.8125H2.75C2.5775 13.8125 2.4375 13.6728 2.4375 13.5C2.4375 13.3272 2.5775 13.1875 2.75 13.1875H3.6875C3.86 13.1875 4 13.3272 4 13.5C4 13.6728 3.86 13.8125 3.6875 13.8125Z" fill="#35383F"/>
</g>
<g id="Group_23">
<path id="Vector_23" d="M3.6875 8.1875H2.75C2.5775 8.1875 2.4375 8.04781 2.4375 7.875C2.4375 7.70219 2.5775 7.5625 2.75 7.5625H3.6875C3.86 7.5625 4 7.70219 4 7.875C4 8.04781 3.86 8.1875 3.6875 8.1875Z" fill="#35383F"/>
</g>
<g id="Group_24">
<path id="Vector_24" d="M12.125 6.3125H0.875C0.7025 6.3125 0.5625 6.17281 0.5625 6C0.5625 5.82719 0.7025 5.6875 0.875 5.6875H12.125C12.2975 5.6875 12.4375 5.82719 12.4375 6C12.4375 6.17281 12.2975 6.3125 12.125 6.3125Z" fill="#35383F"/>
</g>
</g>
</svg>
