<svg width="19" height="13" viewBox="0 0 19 13" fill="none" xmlns="http://www.w3.org/2000/svg">
<g clip-path="url(#clip0_2686_15471)">
<path d="M0.777656 1.3125C0.571652 1.3125 0.374065 1.39424 0.228267 1.53977C0.0824684 1.68531 0.000372521 1.88275 0 2.08875L0 11.6203C0.00148482 11.8256 0.0840712 12.0219 0.229749 12.1666C0.375428 12.3112 0.57238 12.3923 0.777656 12.3923H17.2308C17.4367 12.3923 17.6341 12.3106 17.7797 12.165C17.9252 12.0194 18.007 11.822 18.007 11.6161V2.08875C18.007 1.88288 17.9252 1.68543 17.7797 1.53986C17.6341 1.39428 17.4367 1.3125 17.2308 1.3125H0.777656ZM17.2308 1.875H17.2533L9 7.78266L0.75375 1.87641H17.2238L17.2308 1.875ZM6.75 6.86156L0.585 11.557C0.576562 11.557 0.570938 11.5711 0.5625 11.5781V2.4375L6.75 6.86156ZM7.22813 7.20469L8.83969 8.35781C8.88733 8.39169 8.94435 8.40988 9.00281 8.40984C9.06175 8.41017 9.11931 8.39197 9.16734 8.35781L10.7775 7.20469L16.8511 11.8298H1.14891L7.22813 7.20469ZM17.4375 11.5781C17.4307 11.5704 17.4232 11.5633 17.415 11.557L11.25 6.86156L17.4375 2.43187V11.5781Z" fill="#35383F"/>
</g>
<defs>
<clipPath id="clip0_2686_15471">
<rect width="19" height="12" fill="white" transform="translate(0 0.5)"/>
</clipPath>
</defs>
</svg>
