<svg width="18" height="19" viewBox="0 0 18 19" fill="none" xmlns="http://www.w3.org/2000/svg">
<g clip-path="url(#clip0_2686_15467)">
<path d="M17.1354 13.404L14.9574 11.208C14.5974 10.848 14.1114 10.632 13.6614 10.632C13.1754 10.632 12.7434 10.83 12.3654 11.208L11.1054 12.468C11.0514 12.432 10.9794 12.396 10.9254 12.378C10.9254 12.378 10.9074 12.378 10.9074 12.36L10.8894 12.342C10.7274 12.234 10.5474 12.126 10.3314 12.036C9.23342 11.352 8.20742 10.398 7.16342 9.12C6.67742 8.508 6.33542 7.968 6.06542 7.374C6.35342 7.14 6.56942 6.906 6.73142 6.726L7.28942 6.168C7.72142 5.772 7.93742 5.322 7.93742 4.854C7.93742 4.368 7.72142 3.918 7.30742 3.486L5.59742 1.776C5.43542 1.614 5.27342 1.452 5.09342 1.29C4.73342 0.948 4.28342 0.75 3.81542 0.75C3.29342 0.75 2.86142 0.93 2.46542 1.326L1.15142 2.64C0.629424 3.126 0.323424 3.738 0.251424 4.494V4.512C0.215424 5.448 0.359423 6.312 0.755423 7.392C1.38542 9.084 2.33942 10.668 3.76142 12.414C5.61542 14.502 7.70342 16.122 10.0254 17.238L10.0794 17.256C10.7634 17.562 12.0594 18.138 13.4994 18.228H13.6974C14.6514 18.228 15.3714 17.922 15.9654 17.274C16.1814 17.022 16.4154 16.788 16.6134 16.572C16.7754 16.446 16.8834 16.32 16.9914 16.194L17.1354 16.05L17.1714 16.014C17.9274 15.186 17.9274 14.178 17.1354 13.404ZM16.5054 15.402L16.3254 15.582L16.3074 15.618C16.2174 15.726 16.1454 15.816 16.0554 15.888L16.0014 15.942C15.7854 16.158 15.5334 16.41 15.2814 16.698C14.8674 17.148 14.3994 17.346 13.6974 17.346H13.5534C12.2934 17.256 11.1414 16.752 10.4574 16.446L10.4214 16.428C8.20742 15.366 6.20942 13.818 4.46342 11.838C3.09542 10.182 2.19542 8.67 1.60142 7.086C1.24142 6.096 1.11542 5.376 1.15142 4.566C1.20542 4.044 1.40342 3.63 1.76342 3.306L3.09542 1.974C3.31142 1.758 3.52742 1.668 3.79742 1.668C4.03142 1.668 4.24742 1.776 4.44542 1.956L4.46342 1.974C4.62542 2.118 4.78742 2.28 4.94942 2.442L6.65942 4.152C6.98342 4.476 7.03742 4.728 7.03742 4.872C7.03742 5.016 7.00142 5.232 6.65942 5.538L6.08342 6.114C5.88542 6.33 5.65142 6.564 5.34542 6.816L5.30942 6.852L5.27342 6.906C5.11142 7.122 5.09342 7.32 5.18342 7.608L5.20142 7.68L5.21942 7.752C5.52542 8.418 5.90342 9.03 6.44342 9.714C7.55942 11.082 8.67542 12.108 9.86342 12.846L9.91742 12.882C10.0614 12.954 10.2054 13.026 10.3314 13.098C10.3854 13.152 10.4574 13.188 10.5114 13.206C10.5834 13.242 10.6374 13.26 10.6734 13.296L10.7994 13.386H10.8354L10.8894 13.404C10.9974 13.44 11.0694 13.44 11.1234 13.44C11.3034 13.44 11.4654 13.368 11.6274 13.206L12.9774 11.856C13.1934 11.64 13.3914 11.55 13.6434 11.55C13.9134 11.55 14.1654 11.712 14.3094 11.856L16.5054 14.052C16.9374 14.484 16.9554 14.934 16.5054 15.402Z" fill="#35383F"/>
</g>
<defs>
<clipPath id="clip0_2686_15467">
<rect width="18" height="18" fill="white" transform="translate(0 0.5)"/>
</clipPath>
</defs>
</svg>
