<svg width="22" height="22" viewBox="0 0 22 22" fill="none" xmlns="http://www.w3.org/2000/svg">
<path d="M14.0149 13.8413L21 21M16.2473 8.52197C16.2473 10.0097 15.8001 11.464 14.9625 12.701C14.1248 13.9379 12.9341 14.9021 11.5411 15.4714C10.148 16.0407 8.61518 16.1897 7.13634 15.8994C5.6575 15.6092 4.2991 14.8928 3.23291 13.8408C2.16673 12.7888 1.44065 11.4486 1.14649 9.98944C0.85233 8.53032 1.0033 7.0179 1.58032 5.64344C2.15733 4.26898 3.13447 3.09421 4.38817 2.26768C5.64187 1.44116 7.11582 1 8.62363 1C10.6455 1 12.5847 1.79249 14.0144 3.20314C15.4441 4.61378 16.2473 6.52702 16.2473 8.52197Z" stroke="#5D5E5E" stroke-linecap="round" stroke-linejoin="round"/>
</svg>
